<?xml version="1.0" encoding="UTF-8" standalone="no"?>
<!-- Created with Inkscape (http://www.inkscape.org/) -->

<svg
   width="48.154167mm"
   height="8.2020826mm"
   viewBox="0 0 48.154166 8.2020829"
   version="1.1"
   id="svg5"
   sodipodi:docname="logo_light.svg"
   xmlns:inkscape="http://www.inkscape.org/namespaces/inkscape"
   xmlns:sodipodi="http://sodipodi.sourceforge.net/DTD/sodipodi-0.dtd"
   xmlns="http://www.w3.org/2000/svg"
   xmlns:svg="http://www.w3.org/2000/svg">
  <sodipodi:namedview
     id="namedview269"
     pagecolor="#ffffff"
     bordercolor="#000000"
     borderopacity="0.25"
     inkscape:showpageshadow="2"
     inkscape:pageopacity="0.0"
     inkscape:pagecheckerboard="0"
     inkscape:deskcolor="#d1d1d1"
     inkscape:document-units="mm"
     showgrid="false" />
  <defs
     id="defs2" />
  <g
     id="layer1"
     transform="matrix(3.3734038,0,0,3.4053285,-343.83525,-429.37644)">
    <g
       id="g1219"
       style="display:inline">
      <g
         id="g1204"
         transform="matrix(2.9847117,0,0,2.9847117,-202.29235,-245.04001)">
        <path
           d="m 102.34989,124.60947 q 0,-0.0285 -0.0117,-0.0488 -0.0117,-0.0203 -0.0402,-0.032 -0.0198,-0.008 -0.0463,-0.01 -0.0264,-0.002 -0.0615,-0.002 h -0.0707 v 0.2039 h 0.06 q 0.0468,0 0.0783,-0.005 0.0315,-0.005 0.0529,-0.0209 0.0203,-0.0158 0.0295,-0.0346 0.01,-0.0193 0.01,-0.0514 z m 0.30459,0.52528 h -0.23849 l -0.20644,-0.27764 h -0.09 v 0.27764 h -0.19424 v -0.75715 h 0.32747 q 0.0671,0 0.11543,0.008 0.0483,0.008 0.0905,0.033 0.0427,0.0254 0.0676,0.0661 0.0254,0.0402 0.0254,0.10119 0,0.0839 -0.0392,0.13679 -0.0386,0.0529 -0.11085,0.088 z"
           style="font-weight:bold;font-size:1.0414px;-inkscape-font-specification:'sans-serif, Bold';letter-spacing:-0.0771397px;opacity:0.96;fill:#34d39b;stroke-width:0.0834535"
           id="path508" />
        <path
           d="m 103.21499,124.88304 h -0.419 q 0.004,0.0671 0.0508,0.10272 0.0473,0.0356 0.13882,0.0356 0.058,0 0.11238,-0.0208 0.0544,-0.0209 0.0859,-0.0448 h 0.0203 v 0.14696 q -0.062,0.0249 -0.11696,0.0361 -0.0549,0.0112 -0.12153,0.0112 -0.17187,0 -0.2634,-0.0773 -0.0915,-0.0773 -0.0915,-0.22017 0,-0.14137 0.0864,-0.22374 0.087,-0.0829 0.23798,-0.0829 0.13933,0 0.2095,0.0707 0.0702,0.0702 0.0702,0.20238 z m -0.18204,-0.10729 q -0.002,-0.0575 -0.0285,-0.0864 -0.0269,-0.029 -0.0839,-0.029 -0.0529,0 -0.087,0.0275 -0.0341,0.0275 -0.0381,0.088 z"
           style="font-weight:bold;font-size:1.0414px;-inkscape-font-specification:'sans-serif, Bold';letter-spacing:-0.0771397px;opacity:0.96;fill:#34d39b;stroke-width:0.0834535"
           id="path510" />
        <path
           d="m 103.61279,124.98576 v -0.11899 q -0.0371,0.003 -0.0803,0.009 -0.0432,0.005 -0.0656,0.0122 -0.0275,0.009 -0.0422,0.0254 -0.0142,0.0163 -0.0142,0.0432 0,0.0178 0.003,0.029 0.003,0.0112 0.0152,0.0214 0.0117,0.0102 0.028,0.0153 0.0163,0.005 0.0508,0.005 0.0275,0 0.0554,-0.0112 0.0285,-0.0112 0.0498,-0.0295 z m 0,0.0885 q -0.0148,0.0112 -0.0366,0.0269 -0.0219,0.0158 -0.0412,0.0249 -0.0269,0.0122 -0.0559,0.0178 -0.029,0.006 -0.0636,0.006 -0.0814,0 -0.13627,-0.0503 -0.0549,-0.0503 -0.0549,-0.12865 0,-0.0625 0.028,-0.1022 0.028,-0.0397 0.0793,-0.0626 0.0508,-0.0229 0.12611,-0.0325 0.0753,-0.01 0.15611,-0.0142 v -0.003 q 0,-0.0473 -0.0387,-0.0651 -0.0386,-0.0183 -0.1139,-0.0183 -0.0453,0 -0.0966,0.0163 -0.0513,0.0158 -0.0737,0.0244 h -0.0168 v -0.13781 q 0.029,-0.008 0.0941,-0.0178 0.0656,-0.0107 0.1312,-0.0107 0.1561,0 0.22526,0.0483 0.0697,0.0478 0.0697,0.15052 v 0.38849 h -0.18153 z"
           style="font-weight:bold;font-size:1.0414px;-inkscape-font-specification:'sans-serif, Bold';letter-spacing:-0.0771397px;opacity:0.96;fill:#34d39b;stroke-width:0.0834535"
           id="path512" />
        <path
           d="m 104.06855,125.13475 h -0.18305 v -0.22896 -0.17497 -0.20514 -0.18215 h 0.18305 v 0.19781 0.0869 0.11089 0.18475 z"
           style="font-weight:bold;font-size:1.0414px;-inkscape-font-specification:'sans-serif, Bold';letter-spacing:-0.0771397px;opacity:0.96;fill:#34d39b;stroke-width:0.0834535"
           id="path514" />
      </g>
      <g
         id="g1198"
         transform="matrix(2.9847117,0,0,2.9847117,-202.29235,-245.04001)">
        <path
           d="m 104.88993,124.75694 c 0,0.0705 -0.0161,0.13373 -0.0483,0.18967 -0.0322,0.0556 -0.0729,0.0983 -0.12204,0.12814 -0.0369,0.0224 -0.0774,0.038 -0.12153,0.0468 -0.0441,0.009 -0.0963,0.0132 -0.15662,0.0132 h -0.26696 v -0.24103 -0.1629 -0.18704 -0.16618 h 0.27459 c 0.0617,0 0.11496,0.005 0.15967,0.0158 0.0447,0.0102 0.0824,0.0248 0.11288,0.0437 0.0522,0.0319 0.0932,0.0749 0.12306,0.12916 0.0302,0.0539 0.0453,0.11743 0.0453,0.19069 z m -0.20188,-0.002 c 0,-0.0498 -0.009,-0.0923 -0.0275,-0.12763 -0.0179,-0.0356 -0.0466,-0.0634 -0.0859,-0.0834 -0.02,-0.01 -0.0405,-0.0165 -0.0615,-0.0198 -0.0207,-0.004 -0.052,-0.006 -0.0941,-0.006 h -0.0493 v 0.47392 h 0.0493 c 0.0465,0 0.0805,-0.002 0.10221,-0.006 0.0217,-0.005 0.0429,-0.0125 0.0636,-0.0234 0.0356,-0.0203 0.0617,-0.0475 0.0783,-0.0814 0.0166,-0.0343 0.0249,-0.0765 0.0249,-0.12662 z"
           style="font-weight:bold;font-size:1.0414px;-inkscape-font-specification:'sans-serif, Bold';letter-spacing:-0.0771397px;opacity:0.96;fill:#f5fbf9;fill-opacity:1;stroke-width:0.0834535"
           id="path516" />
        <path
           d="m 105.36552,124.73812 h -0.0163 q -0.0117,-0.004 -0.0376,-0.006 -0.0259,-0.002 -0.0432,-0.002 -0.0392,0 -0.0692,0.005 -0.03,0.005 -0.0646,0.0173 v 0.38239 h -0.18306 v -0.57104 h 0.18306 v 0.0839 q 0.0605,-0.0519 0.10525,-0.0687 0.0448,-0.0173 0.0824,-0.0173 0.01,0 0.0219,5e-4 0.0122,5.1e-4 0.0213,0.002 z"
           style="font-weight:bold;font-size:1.0414px;-inkscape-font-specification:'sans-serif, Bold';letter-spacing:-0.0771397px;opacity:0.96;fill:#f5fbf9;fill-opacity:1;stroke-width:0.0834535"
           id="path518" />
        <g
           id="g1189">
          <path
             style="font-weight:bold;font-size:1.0414px;-inkscape-font-specification:'sans-serif, Bold';letter-spacing:-0.0771397px;opacity:0.96;fill:#0000ff;stroke-width:0.0834535"
             d="m 105.58017,124.48235 h -0.19323 v -0.13882 h 0.19323 z"
             id="path1164" />
          <path
             style="font-weight:bold;font-size:1.0414px;-inkscape-font-specification:'sans-serif, Bold';letter-spacing:-0.0771397px;opacity:0.96;fill:#f5fbf9;fill-opacity:1;stroke-width:0.0834535"
             d="m 105.57517,125.13475 h -0.18305 v -0.28552 -0.28552 h 0.18305 z"
             id="path520" />
        </g>
        <path
           d="m 106.16722,124.95373 q 0,0.0885 -0.0793,0.14288 -0.0793,0.0539 -0.21713,0.0539 -0.0763,0 -0.13831,-0.0142 -0.062,-0.0142 -0.0997,-0.0315 v -0.15052 h 0.0168 q 0.0137,0.01 0.0315,0.0214 0.0183,0.0112 0.0514,0.0244 0.0285,0.0117 0.0646,0.0203 0.0361,0.008 0.0773,0.008 0.0539,0 0.0798,-0.0117 0.0259,-0.0122 0.0259,-0.0356 0,-0.0208 -0.0153,-0.03 -0.0153,-0.01 -0.058,-0.0183 -0.0203,-0.005 -0.0554,-0.01 -0.0346,-0.006 -0.063,-0.0132 -0.0778,-0.0203 -0.11543,-0.0631 -0.0376,-0.0432 -0.0376,-0.10729 0,-0.0824 0.0778,-0.13679 0.0783,-0.0549 0.21357,-0.0549 0.0641,0 0.12254,0.0132 0.059,0.0127 0.092,0.0275 v 0.14441 h -0.0158 q -0.0407,-0.028 -0.0931,-0.0453 -0.0519,-0.0178 -0.10525,-0.0178 -0.0442,0 -0.0748,0.0122 -0.03,0.0122 -0.03,0.0346 0,0.0203 0.0137,0.031 0.0137,0.0107 0.0646,0.0214 0.028,0.006 0.06,0.0112 0.0325,0.005 0.0651,0.0132 0.0722,0.0188 0.10679,0.0595 0.0346,0.0402 0.0346,0.10069 z"
           style="font-weight:bold;font-size:1.0414px;-inkscape-font-specification:'sans-serif, Bold';letter-spacing:-0.0771397px;opacity:0.96;fill:#f5fbf9;fill-opacity:1;stroke-width:0.0834535"
           id="path522" />
        <path
           d="m 106.7079,124.95373 q 0,0.0885 -0.0793,0.14288 -0.0793,0.0539 -0.21712,0.0539 -0.0763,0 -0.13832,-0.0142 -0.062,-0.0142 -0.0997,-0.0315 v -0.15052 h 0.0168 q 0.0137,0.01 0.0315,0.0214 0.0183,0.0112 0.0513,0.0244 0.0285,0.0117 0.0646,0.0203 0.0361,0.008 0.0773,0.008 0.0539,0 0.0798,-0.0117 0.0259,-0.0122 0.0259,-0.0356 0,-0.0208 -0.0152,-0.03 -0.0153,-0.01 -0.058,-0.0183 -0.0203,-0.005 -0.0554,-0.01 -0.0346,-0.006 -0.0631,-0.0132 -0.0778,-0.0203 -0.11543,-0.0631 -0.0376,-0.0432 -0.0376,-0.10729 0,-0.0824 0.0778,-0.13679 0.0783,-0.0549 0.21357,-0.0549 0.0641,0 0.12255,0.0132 0.059,0.0127 0.092,0.0275 v 0.14441 h -0.0158 q -0.0407,-0.028 -0.0931,-0.0453 -0.0519,-0.0178 -0.10526,-0.0178 -0.0442,0 -0.0747,0.0122 -0.03,0.0122 -0.03,0.0346 0,0.0203 0.0137,0.031 0.0137,0.0107 0.0646,0.0214 0.028,0.006 0.06,0.0112 0.0325,0.005 0.0651,0.0132 0.0722,0.0188 0.10678,0.0595 0.0346,0.0402 0.0346,0.10069 z"
           style="font-weight:bold;font-size:1.0414px;-inkscape-font-specification:'sans-serif, Bold';letter-spacing:-0.0771397px;opacity:0.96;fill:#f5fbf9;fill-opacity:1;stroke-width:0.0834535"
           id="path524" />
      </g>
    </g>
  </g>
</svg>
